# xmcd
#
# Track frame offsets: 
#        150
#        18857
#        36047
#        50477
#        61162
#        75900
#        97150
#        115115
#        135697
#        161025
#        179655
#        199017
#        222425
#        243560
#        260455
#        282342
#        297087
#        313085
#
# Disc length: 4540 seconds
#
# Revision: 2
# Processed by: cddbd v1.5.2PL0 Copyright (c) Steve Scherf et al.
# Submitted via: ExactAudioCopyFreeDBPlugin 1.0
#
DISCID=0711ba12
DTITLE=feel - ～the most relaxing～ feel voice
DYEAR=2005
DGENRE=Easy Listening
TTITLE0=Donna Burke and Dennis Gunn - オペラ座の怪人
TTITLE1=S.E.N.S. - Remembering Me
TTITLE2=Sarah Brightman - 青い影
TTITLE3=Vie Vie - Londonderry Air
TTITLE4=Libera - 誓い(ジュピター)
TTITLE5=姫神 - 神々の詩
TTITLE6=Adiemus - 聖なる海の歌声
TTITLE7=Izzy - 私を泣かせてください
TTITLE8=Sinead O'Connor - 泣かないでアルゼンティーナ
TTITLE9=Nuno - Amazing Grace
TTITLE10=Keedie - Ave Maria
TTITLE11=ORIGA - Le Vent Vert
TTITLE12=David Sylvian and 坂本龍一 - 禁じられた色彩
TTITLE13=Madredeus - 海と旋律
TTITLE14=Enigma - Beyond The Invisible (Radio Edit)
TTITLE15=Amici Forever - Prayer In The Night
TTITLE16=鈴木慶江 - G線上のアリア～君は花のごとく～
TTITLE17=森麻季, 岩代太郎 - 東京都交響楽団 - 夜の詩　第１番～ソプラノ編～
EXTD=YEAR: 2005
EXTT0=
EXTT1=
EXTT2=
EXTT3=
EXTT4=
EXTT5=
EXTT6=
EXTT7=
EXTT8=
EXTT9=
EXTT10=
EXTT11=
EXTT12=
EXTT13=
EXTT14=
EXTT15=
EXTT16=
EXTT17=
PLAYORDER=
